<mxfile host="app.diagrams.net" modified="2023-05-01T13:37:16.126Z" agent="Mozilla/5.0 (X11; Linux x86_64) AppleWebKit/537.36 (KHTML, like Gecko) Chrome/111.0.0.0 Safari/537.36" etag="R-GsAZvU31kN5ON4TW6x" version="21.2.3" type="github">
  <diagram name="Página-1" id="3L4wR_7pq2LCs9swwZR0">
    <mxGraphModel dx="820" dy="499" grid="1" gridSize="10" guides="1" tooltips="1" connect="1" arrows="1" fold="1" page="1" pageScale="1" pageWidth="827" pageHeight="1169" math="0" shadow="0">
      <root>
        <mxCell id="0" />
        <mxCell id="1" parent="0" />
        <mxCell id="ZpGBJDUqC5GNQVEPb1LD-1" value="Modelado" style="rounded=1;whiteSpace=wrap;html=1;" parent="1" vertex="1">
          <mxGeometry x="310" y="40" width="250" height="70" as="geometry" />
        </mxCell>
        <mxCell id="25a5C4nNvtbBR-R8CF3t-2" style="edgeStyle=orthogonalEdgeStyle;rounded=0;orthogonalLoop=1;jettySize=auto;html=1;exitX=0;exitY=0.5;exitDx=0;exitDy=0;" parent="1" source="ZpGBJDUqC5GNQVEPb1LD-2" edge="1">
          <mxGeometry relative="1" as="geometry">
            <mxPoint x="320" y="170" as="targetPoint" />
          </mxGeometry>
        </mxCell>
        <mxCell id="HhwuEP4Uwm3CH9VPZxPr-2" style="edgeStyle=orthogonalEdgeStyle;rounded=0;orthogonalLoop=1;jettySize=auto;html=1;exitX=1;exitY=0.5;exitDx=0;exitDy=0;" edge="1" parent="1" source="ZpGBJDUqC5GNQVEPb1LD-2" target="HhwuEP4Uwm3CH9VPZxPr-1">
          <mxGeometry relative="1" as="geometry" />
        </mxCell>
        <mxCell id="ZpGBJDUqC5GNQVEPb1LD-2" value="EDA" style="rounded=0;whiteSpace=wrap;html=1;" parent="1" vertex="1">
          <mxGeometry x="375" y="140" width="120" height="60" as="geometry" />
        </mxCell>
        <mxCell id="HhwuEP4Uwm3CH9VPZxPr-5" style="edgeStyle=orthogonalEdgeStyle;rounded=0;orthogonalLoop=1;jettySize=auto;html=1;exitX=0;exitY=1;exitDx=0;exitDy=0;" edge="1" parent="1" source="ZpGBJDUqC5GNQVEPb1LD-3">
          <mxGeometry relative="1" as="geometry">
            <mxPoint x="140" y="290" as="targetPoint" />
          </mxGeometry>
        </mxCell>
        <mxCell id="HhwuEP4Uwm3CH9VPZxPr-6" style="edgeStyle=orthogonalEdgeStyle;rounded=0;orthogonalLoop=1;jettySize=auto;html=1;exitX=1;exitY=1;exitDx=0;exitDy=0;" edge="1" parent="1" source="ZpGBJDUqC5GNQVEPb1LD-3">
          <mxGeometry relative="1" as="geometry">
            <mxPoint x="260" y="290" as="targetPoint" />
          </mxGeometry>
        </mxCell>
        <mxCell id="ZpGBJDUqC5GNQVEPb1LD-3" value="Modelo 1" style="rounded=0;whiteSpace=wrap;html=1;" parent="1" vertex="1">
          <mxGeometry x="140" y="210" width="120" height="60" as="geometry" />
        </mxCell>
        <mxCell id="HhwuEP4Uwm3CH9VPZxPr-7" style="edgeStyle=orthogonalEdgeStyle;rounded=0;orthogonalLoop=1;jettySize=auto;html=1;exitX=0;exitY=1;exitDx=0;exitDy=0;" edge="1" parent="1" source="ZpGBJDUqC5GNQVEPb1LD-4">
          <mxGeometry relative="1" as="geometry">
            <mxPoint x="610" y="290" as="targetPoint" />
          </mxGeometry>
        </mxCell>
        <mxCell id="HhwuEP4Uwm3CH9VPZxPr-8" style="edgeStyle=orthogonalEdgeStyle;rounded=0;orthogonalLoop=1;jettySize=auto;html=1;exitX=1;exitY=1;exitDx=0;exitDy=0;" edge="1" parent="1" source="ZpGBJDUqC5GNQVEPb1LD-4">
          <mxGeometry relative="1" as="geometry">
            <mxPoint x="730" y="290" as="targetPoint" />
          </mxGeometry>
        </mxCell>
        <mxCell id="ZpGBJDUqC5GNQVEPb1LD-4" value="Modelo 2" style="rounded=0;whiteSpace=wrap;html=1;" parent="1" vertex="1">
          <mxGeometry x="610" y="210" width="120" height="60" as="geometry" />
        </mxCell>
        <mxCell id="HhwuEP4Uwm3CH9VPZxPr-14" style="edgeStyle=orthogonalEdgeStyle;rounded=0;orthogonalLoop=1;jettySize=auto;html=1;exitX=0.5;exitY=1;exitDx=0;exitDy=0;entryX=0;entryY=0.5;entryDx=0;entryDy=0;" edge="1" parent="1" source="ZpGBJDUqC5GNQVEPb1LD-6" target="HhwuEP4Uwm3CH9VPZxPr-9">
          <mxGeometry relative="1" as="geometry" />
        </mxCell>
        <mxCell id="ZpGBJDUqC5GNQVEPb1LD-6" value="Modelo 1.1" style="ellipse;whiteSpace=wrap;html=1;" parent="1" vertex="1">
          <mxGeometry x="46" y="300" width="120" height="80" as="geometry" />
        </mxCell>
        <mxCell id="HhwuEP4Uwm3CH9VPZxPr-15" style="edgeStyle=orthogonalEdgeStyle;rounded=0;orthogonalLoop=1;jettySize=auto;html=1;exitX=0.5;exitY=1;exitDx=0;exitDy=0;" edge="1" parent="1" source="ZpGBJDUqC5GNQVEPb1LD-7">
          <mxGeometry relative="1" as="geometry">
            <mxPoint x="370" y="400" as="targetPoint" />
          </mxGeometry>
        </mxCell>
        <mxCell id="ZpGBJDUqC5GNQVEPb1LD-7" value="Modelo 1.2" style="ellipse;whiteSpace=wrap;html=1;" parent="1" vertex="1">
          <mxGeometry x="234" y="300" width="120" height="80" as="geometry" />
        </mxCell>
        <mxCell id="HhwuEP4Uwm3CH9VPZxPr-12" style="edgeStyle=orthogonalEdgeStyle;rounded=0;orthogonalLoop=1;jettySize=auto;html=1;exitX=0.5;exitY=1;exitDx=0;exitDy=0;" edge="1" parent="1" source="ZpGBJDUqC5GNQVEPb1LD-8">
          <mxGeometry relative="1" as="geometry">
            <mxPoint x="500" y="400" as="targetPoint" />
          </mxGeometry>
        </mxCell>
        <mxCell id="ZpGBJDUqC5GNQVEPb1LD-8" value="Modelo 2.1" style="ellipse;whiteSpace=wrap;html=1;" parent="1" vertex="1">
          <mxGeometry x="520" y="300" width="120" height="80" as="geometry" />
        </mxCell>
        <mxCell id="HhwuEP4Uwm3CH9VPZxPr-13" style="edgeStyle=orthogonalEdgeStyle;rounded=0;orthogonalLoop=1;jettySize=auto;html=1;exitX=0.5;exitY=1;exitDx=0;exitDy=0;entryX=1;entryY=0.5;entryDx=0;entryDy=0;" edge="1" parent="1" source="ZpGBJDUqC5GNQVEPb1LD-9" target="HhwuEP4Uwm3CH9VPZxPr-9">
          <mxGeometry relative="1" as="geometry" />
        </mxCell>
        <mxCell id="ZpGBJDUqC5GNQVEPb1LD-9" value="Modelo 2.2" style="ellipse;whiteSpace=wrap;html=1;" parent="1" vertex="1">
          <mxGeometry x="700" y="300" width="120" height="80" as="geometry" />
        </mxCell>
        <mxCell id="25a5C4nNvtbBR-R8CF3t-3" style="edgeStyle=orthogonalEdgeStyle;rounded=0;orthogonalLoop=1;jettySize=auto;html=1;exitX=0;exitY=0.5;exitDx=0;exitDy=0;" parent="1" source="25a5C4nNvtbBR-R8CF3t-1" edge="1">
          <mxGeometry relative="1" as="geometry">
            <mxPoint x="180" y="200" as="targetPoint" />
          </mxGeometry>
        </mxCell>
        <mxCell id="25a5C4nNvtbBR-R8CF3t-1" value="Muestra&amp;nbsp; entera" style="text;html=1;strokeColor=none;fillColor=none;align=center;verticalAlign=middle;whiteSpace=wrap;rounded=0;" parent="1" vertex="1">
          <mxGeometry x="210" y="155" width="110" height="30" as="geometry" />
        </mxCell>
        <mxCell id="HhwuEP4Uwm3CH9VPZxPr-3" style="edgeStyle=orthogonalEdgeStyle;rounded=0;orthogonalLoop=1;jettySize=auto;html=1;exitX=1;exitY=0.5;exitDx=0;exitDy=0;entryX=0.5;entryY=0;entryDx=0;entryDy=0;" edge="1" parent="1" source="HhwuEP4Uwm3CH9VPZxPr-1" target="ZpGBJDUqC5GNQVEPb1LD-4">
          <mxGeometry relative="1" as="geometry" />
        </mxCell>
        <mxCell id="HhwuEP4Uwm3CH9VPZxPr-1" value="Muestra reducida" style="text;html=1;strokeColor=none;fillColor=none;align=center;verticalAlign=middle;whiteSpace=wrap;rounded=0;" vertex="1" parent="1">
          <mxGeometry x="540" y="155" width="110" height="30" as="geometry" />
        </mxCell>
        <mxCell id="HhwuEP4Uwm3CH9VPZxPr-9" value="Selección del modelo" style="rounded=0;whiteSpace=wrap;html=1;" vertex="1" parent="1">
          <mxGeometry x="375" y="380" width="120" height="60" as="geometry" />
        </mxCell>
      </root>
    </mxGraphModel>
  </diagram>
</mxfile>
